# xmcd
#
# Track frame offsets:
# 150
# 12909
# 24854
# 36993
# 49958
# 63089
# 77780
# 89303
# 101883
# 112005
#
# Disc length: 1642 seconds
#
#
# Revision: 0
# Processed by: cddbd v1.5.2PL0 Copyright (c) Steve Scherf et al.
# Submitted via: FreeRIP 2.951 
#
DISCID=7a06680a
DTITLE=Wes St.Jon - Oilfield Cowboy
DYEAR=2006
DGENRE=Country
TTITLE0=Oilfield Cowboy
TTITLE1=Oilfield Hands
TTITLE2=Oilfield Trash
TTITLE3=The Story of the Derrick Man, Toolpusher, Roustabout,Roughneck, Driller, and the Company Man
TTITLE4=Oilfield Outlaw
TTITLE5=I'm a Roughneck
TTITLE6=Roustabout
TTITLE7=Oilfield Class
TTITLE8=Oilfield Trucker
TTITLE9=Service Hands
EXTD=www.wesstjon.com\n
EXTT0=
EXTT1=
EXTT2=
EXTT3=
EXTT4=
EXTT5=
EXTT6=
EXTT7=
EXTT8=
EXTT9=
PLAYORDER=
